<svg width="1024" height="320" viewBox="0 0 1024 320" fill="none" xmlns="http://www.w3.org/2000/svg" role="img" aria-labelledby="title desc">
  <title id="title">Flare Dynamics logo</title>
  <desc id="desc">Flare Dynamics wordmark with red and gray orbital arcs.</desc>
  <rect width="1024" height="320" fill="transparent"/>
  <path d="M230 28C139 45 59 111 38 184C28 220 41 249 76 260C107 271 153 263 198 239C164 270 111 286 67 273C18 258 -2 222 13 178C36 107 117 43 206 20C244 10 262 13 230 28Z" fill="#5F6062"/>
  <path d="M360 39C266 58 193 129 178 204C169 248 194 273 244 268C289 263 338 238 382 203C344 249 285 282 232 286C172 291 140 260 153 208C171 134 251 62 346 32C386 20 403 24 360 39Z" fill="#EF2429"/>
  <path d="M251 111H426V138H282C272 138 267 142 267 151V158H408V185H267V216H239V151C239 125 254 111 251 111Z" fill="#EF2429"/>
  <path d="M441 111H469V174C469 184 474 189 484 189H567V216H482C455 216 441 202 441 175V111Z" fill="#EF2429"/>
  <path d="M652 111H681C702 111 711 122 711 141V216H683V187H597L568 216H528L635 118C640 113 646 111 652 111ZM625 160H683V140C683 135 680 132 675 132H654L625 160Z" fill="#EF2429"/>
  <path d="M734 111H856C878 111 887 121 887 141V154C887 170 882 180 869 184L892 216H858L837 187H762V216H734V111ZM762 137V161H850C856 161 859 158 859 152V146C859 140 856 137 850 137H762Z" fill="#EF2429"/>
  <path d="M930 111H1024V137H946C940 137 937 140 937 146V153H1024V179H937V181C937 187 940 190 946 190H1024V216H930C916 216 909 208 909 194V133C909 119 916 111 930 111Z" fill="#EF2429"/>
  <text x="239" y="303" fill="#5F6062" font-family="Arial, Helvetica, sans-serif" font-size="112" font-weight="700" letter-spacing="7">Dynamics</text>
</svg>
